# Blender v2.80 (sub 75) OBJ File: 'collapsed.blend'
# www.blender.org
mtllib counter_front.mtl
o counter_front_Plane.009
v -3.000000 0.000000 -2.050000
v 3.000000 0.000000 -2.050000
v -3.000000 2.800000 -2.050000
v 3.000000 2.800000 -2.050000
v 2.200000 2.800000 -2.050000
v 2.200000 0.000000 -2.050000
v -2.200000 0.000000 -2.050000
v -2.200000 2.800000 -2.050000
v -3.000000 2.800000 1.850000
v -3.000000 0.000000 1.850000
v 3.000000 0.000000 1.850000
v 3.000000 2.800000 1.850000
v 2.200000 2.800000 1.850000
v 2.200000 0.000000 1.850000
v -2.200000 2.800000 1.850000
v -2.200000 0.000000 1.850000
v 3.000000 2.800000 -2.050000
v -3.000000 2.800000 -2.050000
v -3.000000 5.500000 -2.050000
v 3.000000 5.500000 -2.050000
v -3.000000 2.800000 2.050000
v 3.000000 2.800000 2.050000
v 3.000000 5.500000 2.050000
v -3.000000 5.500000 2.050000
v 2.650001 1.000000 0.550000
v 2.650001 1.000000 1.350000
v -1.249999 1.000000 0.550000
v -1.249999 1.000000 1.350000
v 2.650001 0.850000 0.550000
v 2.650001 0.850000 1.350000
v -1.249999 0.850000 0.550000
v -1.249999 0.850000 1.350000
v 2.550001 0.850000 0.650000
v 2.550001 0.850000 1.250000
v -1.149999 0.850000 0.650000
v -1.149999 0.850000 1.250000
v 2.550001 0.000000 0.650000
v 2.550001 0.000000 1.250000
v -1.149999 0.000000 0.650000
v -1.149999 0.000000 1.250000
vt 0.000000 0.000000
vt 0.000000 0.000000
vt 0.000000 0.000000
vt 0.000000 0.000000
vt 0.000000 0.000000
vt 0.000000 0.000000
vt 1.000000 0.000000
vt 1.000000 0.000000
vt 1.000000 1.000000
vt 1.000000 1.000000
vt 0.000000 1.000000
vt 0.000000 1.000000
vt 1.000000 1.000000
vt 1.000000 0.000000
vt 0.000000 0.000000
vt 0.000000 0.000000
vt 0.000000 0.000000
vt 0.000000 0.000000
vt 0.000000 1.000000
vt 0.000000 0.000000
vt 0.000000 0.000000
vt 0.000000 0.000000
vt 0.000000 0.000000
vt 0.000000 0.000000
vt 0.000000 0.000000
vt 0.000000 0.000000
vt 0.000000 0.000000
vt 0.000000 0.000000
vt 0.000000 0.000000
vt 0.566667 0.000000
vt 0.566667 1.000000
vt 0.433333 1.000000
vt 0.433333 0.000000
vt 0.433333 1.000000
vt 0.433333 0.000000
vt 0.000000 0.000000
vt 0.000000 0.000000
vt 0.000000 0.000000
vt 0.000000 0.000000
vt 0.566667 0.000000
vt 0.566667 1.000000
vt 0.000000 0.905785
vt 0.000000 0.905785
vt 0.000000 1.000000
vt 0.000000 1.000000
vt 0.000000 0.905785
vt 0.000000 1.000000
vt 0.000000 0.000000
vt 0.000000 0.000000
vt 0.000000 0.000000
vt 0.000000 0.000000
vt 0.000000 0.000000
vt 0.000000 0.000000
vt 0.000000 0.905785
vt 0.000000 0.905785
vt 0.000000 1.000000
vt 0.000000 1.000000
vt 0.000000 0.905785
vt 0.000000 1.000000
vt 0.000000 0.000000
vt 0.000000 0.000000
vt 0.000000 0.000000
vt 0.000000 0.000000
vt 0.000000 0.000000
vt 0.000000 0.000000
vn -1.0000 -0.0000 0.0000
vn 0.0000 -1.0000 0.0000
vn 0.0000 0.0000 1.0000
vn 1.0000 -0.0000 0.0000
vn 0.0000 1.0000 0.0000
vn -0.0000 0.0000 -1.0000
g counter_front_Plane.009_None
usemtl None
s off
f 3/1/1 1/2/1 10/3/1 9/4/1
f 1/2/2 7/5/2 16/6/2 10/3/2
f 14/7/3 11/8/3 12/9/3 13/10/3
f 10/3/3 16/6/3 15/11/3 9/12/3
f 5/13/1 6/14/1 14/7/1 13/10/1
f 2/15/4 4/16/4 12/17/4 11/18/4
f 7/5/4 8/19/4 15/11/4 16/6/4
f 8/20/5 3/1/5 9/4/5 15/21/5
f 4/16/5 5/22/5 13/23/5 12/17/5
f 6/24/2 2/15/2 11/18/2 14/25/2
f 20/26/5 19/27/5 24/28/5 23/29/5
f 22/30/3 23/31/3 24/32/3 21/33/3
f 19/34/1 18/35/1 21/33/1 24/32/1
f 18/36/2 17/37/2 22/38/2 21/39/2
f 17/40/4 20/41/4 23/31/4 22/30/4
f 31/42/1 32/43/1 28/44/1 27/45/1
f 30/46/3 26/47/3 28/44/3 32/43/3
f 26/48/5 25/49/5 27/50/5 28/51/5
f 29/52/4 25/49/4 26/47/4 30/46/4
f 29/52/2 30/46/2 32/43/2 31/53/2
f 25/49/6 29/52/6 31/53/6 27/50/6
f 39/54/1 40/55/1 36/56/1 35/57/1
f 38/58/3 34/59/3 36/56/3 40/55/3
f 34/60/5 33/61/5 35/62/5 36/63/5
f 37/64/4 33/61/4 34/59/4 38/58/4
f 37/64/2 38/58/2 40/55/2 39/65/2
f 33/61/6 37/64/6 39/65/6 35/62/6
f 17/40/6 18/35/6 19/27/6 20/41/6
f 4/16/6 2/15/6 6/14/6 5/22/6
f 3/1/6 8/20/6 7/5/6 1/2/6
