# Blender v2.80 (sub 75) OBJ File: 'collapsed.blend'
# www.blender.org
mtllib display_front.mtl
o display_front_Cube.004
v -3.000000 0.000000 1.926806
v -3.000000 4.000000 1.926806
v -3.000000 0.000000 -2.073194
v -3.000000 4.000000 -2.073194
v 3.000000 0.000000 1.926806
v 3.000000 4.000000 1.926806
v 3.000000 0.000000 -2.073194
v 3.000000 4.000000 -2.073194
v 0.000000 0.000000 -2.073194
v 0.000000 4.000000 -2.073194
v 0.000000 0.000000 1.926806
v 0.000000 4.000000 1.926806
v -0.800000 0.000000 -2.073194
v -2.200000 0.000000 -2.073194
v -0.800000 4.000000 1.926806
v -2.200000 4.000000 1.926806
v -2.200000 4.000000 -2.073194
v -0.800000 4.000000 -2.073194
v -2.200000 0.000000 1.926806
v -0.800000 0.000000 1.926806
v -3.000000 2.400000 1.926806
v -3.000000 2.400000 -2.073194
v 3.000000 2.400000 -2.073194
v 3.000000 2.400000 1.926806
v 0.000000 2.400000 1.926806
v 0.000000 2.400000 -2.073194
v -2.200000 2.400000 -2.073194
v -0.800000 2.400000 -2.073194
v -0.800000 2.400000 1.926806
v -2.200000 2.400000 1.926806
v -2.164315 0.110877 1.726806
v -0.835686 0.110877 1.726806
v -0.835686 2.359191 1.726806
v -2.164315 2.359191 1.726806
v -3.000000 0.720000 -2.073194
v 3.000000 0.720000 -2.073194
v 3.000000 0.720000 1.926806
v 0.000000 0.720000 1.926806
v 0.000000 0.720000 -2.073194
v -2.200000 0.720000 -2.073194
v -0.800000 0.720000 -2.073194
v -0.800000 0.720000 1.926806
v -2.200000 0.720000 1.926806
v -3.000000 0.720000 1.926806
v -0.835686 0.729602 1.726806
v -2.164315 0.729602 1.726806
v 2.600000 4.000000 -2.073194
v 2.600000 0.000000 1.926806
v 2.600000 0.000000 -2.073194
v 2.600000 4.000000 1.926806
v 2.600000 2.400000 1.926806
v 2.600000 2.400000 -2.073194
v 2.600000 0.720000 -2.073194
v 2.600000 0.720000 1.926806
v 2.552917 2.359297 1.726806
v 0.047083 2.359297 1.726806
v 0.047083 0.760704 1.726806
v 2.552917 0.760704 1.726806
v -0.052378 0.520000 1.926806
v 2.652378 0.520000 1.926806
v -0.052378 0.720000 1.926806
v 2.652378 0.720000 1.926806
v 2.652378 0.520000 2.026806
v -0.052378 0.520000 2.026806
v 2.652378 0.720000 2.073194
v -0.052378 0.720000 2.073194
v -0.052378 0.620000 1.926806
v 2.652378 0.620000 1.926806
v -0.052378 0.620000 2.073194
v 2.652378 0.620000 2.073194
v -0.052378 0.570000 1.926806
v 2.652378 0.570000 1.926806
v -0.052378 0.570000 2.026806
v 2.652378 0.570000 2.026806
v -0.835686 0.110877 1.926806
v -2.164315 0.110877 1.926806
v -0.835686 2.359191 1.926806
v -2.164315 2.359191 1.926806
v -2.164315 0.729602 1.926806
v -0.835686 0.729602 1.926806
v 0.047083 0.760704 1.926806
v 0.047083 2.359297 1.926806
v 2.552917 0.760704 1.926806
v 2.552917 2.359297 1.926806
v -2.164315 0.172354 1.726805
v -0.835686 0.172354 1.726805
v -0.835686 -0.027646 1.726805
v -2.164315 -0.027646 1.726805
v -2.164315 0.172354 2.025812
v -0.835686 0.172354 2.025812
v -0.835686 -0.027646 2.025812
v -2.164315 -0.027646 2.025812
vt 0.500000 0.000000
vt 0.625000 0.000000
vt 0.625000 0.250000
vt 0.500000 0.250000
vt 0.500000 0.500000
vt 0.625000 0.500000
vt 0.625000 0.500000
vt 0.500000 0.500000
vt 0.625000 0.750000
vt 0.500000 0.750000
vt 0.500000 0.958333
vt 0.625000 0.958333
vt 0.625000 1.000000
vt 0.500000 1.000000
vt 0.375000 0.500000
vt 0.375000 0.500000
vt 0.375000 0.750000
vt 0.375000 0.750000
vt 0.833333 0.500000
vt 0.875000 0.500000
vt 0.875000 0.750000
vt 0.833333 0.750000
vt 0.750000 0.500000
vt 0.750000 0.750000
vt 0.625000 0.750000
vt 0.500000 0.750000
vt 0.625000 0.875000
vt 0.500000 0.875000
vt 0.500000 0.333333
vt 0.625000 0.333333
vt 0.625000 0.375000
vt 0.500000 0.375000
vt 0.625000 0.291667
vt 0.500000 0.291667
vt 0.375000 0.958333
vt 0.375000 0.916667
vt 0.375000 0.916667
vt 0.375000 0.958333
vt 0.791667 0.500000
vt 0.791667 0.750000
vt 0.625000 0.916667
vt 0.500000 0.916667
vt 0.412500 0.875000
vt 0.412500 0.916667
vt 0.412500 0.291667
vt 0.412500 0.333333
vt 0.412500 0.250000
vt 0.412500 0.375000
vt 0.500000 0.875000
vt 0.412500 0.875000
vt 0.412500 0.875000
vt 0.500000 0.875000
vt 0.412500 0.958333
vt 0.412500 1.000000
vt 0.412500 0.500000
vt 0.412500 0.750000
vt 0.412500 0.500000
vt 0.412500 0.000000
vt 0.412500 0.916667
vt 0.500000 0.916667
vt 0.500000 0.958333
vt 0.412500 0.958333
vt 0.412500 0.916667
vt 0.500000 0.916667
vt 0.412500 0.958333
vt 0.500000 0.958333
vt 0.375000 0.000000
vt 0.375000 0.250000
vt 0.375000 0.958333
vt 0.375000 1.000000
vt 0.412500 0.750000
vt 0.375000 0.875000
vt 0.375000 0.333333
vt 0.375000 0.375000
vt 0.375000 0.291667
vt 0.375000 0.916667
vt 0.250000 0.500000
vt 0.250000 0.750000
vt 0.412500 0.750000
vt 0.500000 0.750000
vt 0.412500 0.750000
vt 0.500000 0.750000
vt 0.412500 0.875000
vt 0.412500 0.875000
vt 0.412500 0.750000
vt 0.412500 0.750000
vt 0.412500 0.875000
vt 0.412500 0.750000
vt 0.412500 0.750000
vt 0.412500 0.875000
vt 0.412500 0.875000
vt 0.412500 0.875000
vt 0.412500 0.875000
vt 0.412500 0.875000
vt 0.412500 0.750000
vt 0.412500 0.750000
vt 0.412500 0.750000
vt 0.412500 0.750000
vt 0.375000 0.958333
vt 0.375000 0.958333
vt 0.375000 0.916667
vt 0.375000 0.916667
vt 0.375000 0.958333
vt 0.375000 0.916667
vt 0.375000 0.916667
vt 0.375000 0.958333
vn -1.0000 0.0000 0.0000
vn 0.0000 0.0000 -1.0000
vn 1.0000 0.0000 0.0000
vn 0.0000 0.0000 1.0000
vn 0.0000 -1.0000 0.0000
vn 0.0000 1.0000 0.0000
vn 0.0000 -0.6801 0.7331
g display_front_Cube.004_None
usemtl None
s off
f 21/1/1 2/2/1 4/3/1 22/4/1
f 52/5/2 47/6/2 8/7/2 23/8/2
f 23/8/3 8/7/3 6/9/3 24/10/3
f 30/11/4 16/12/4 2/13/4 21/14/4
f 49/15/5 7/16/5 5/17/5 48/18/5
f 17/19/6 4/20/6 2/21/6 16/22/6
f 47/6/6 10/23/6 12/24/6 50/25/6
f 51/26/4 50/25/4 12/27/4 25/28/4
f 28/29/2 18/30/2 10/31/2 26/32/2
f 22/4/2 4/3/2 17/33/2 27/34/2
f 27/34/2 17/33/2 18/30/2 28/29/2
f 76/35/6 75/36/6 32/37/6 31/38/6
f 10/23/6 18/39/6 15/40/6 12/24/6
f 18/39/6 17/19/6 16/22/6 15/40/6
f 25/28/4 12/27/4 15/41/4 29/42/4
f 29/42/4 15/41/4 16/12/4 30/11/4
f 38/43/4 25/28/4 29/42/4 42/44/4
f 40/45/2 27/34/2 28/29/2 41/46/2
f 35/47/2 22/4/2 27/34/2 40/45/2
f 41/46/2 28/29/2 26/32/2 39/48/2
f 82/49/3 81/50/3 57/51/3 56/52/3
f 43/53/4 30/11/4 21/14/4 44/54/4
f 36/55/3 23/8/3 24/10/3 37/56/3
f 53/57/2 52/5/2 23/8/2 36/55/2
f 44/58/1 21/1/1 22/4/1 35/47/1
f 45/59/4 33/60/4 34/61/4 46/62/4
f 80/63/1 77/64/1 33/60/1 45/59/1
f 79/65/3 76/35/3 31/38/3 46/62/3
f 77/64/5 78/66/5 34/61/5 33/60/5
f 78/66/3 79/65/3 46/62/3 34/61/3
f 75/36/1 80/63/1 45/59/1 32/37/1
f 32/37/4 45/59/4 46/62/4 31/38/4
f 1/67/1 44/58/1 35/47/1 3/68/1
f 49/15/2 53/57/2 36/55/2 7/16/2
f 7/16/3 36/55/3 37/56/3 5/17/3
f 19/69/4 43/53/4 44/54/4 1/70/4
f 48/18/4 54/71/4 38/43/4 11/72/4
f 13/73/2 41/46/2 39/48/2 9/74/2
f 3/68/2 35/47/2 40/45/2 14/75/2
f 14/75/2 40/45/2 41/46/2 13/73/2
f 11/72/4 38/43/4 42/44/4 20/76/4
f 5/17/4 37/56/4 54/71/4 48/18/4
f 9/74/2 39/48/2 53/57/2 49/15/2
f 39/48/2 26/32/2 52/5/2 53/57/2
f 37/56/4 24/10/4 51/26/4 54/71/4
f 24/10/4 6/9/4 50/25/4 51/26/4
f 8/7/6 47/6/6 50/25/6 6/9/6
f 9/77/5 49/15/5 48/18/5 11/78/5
f 26/32/2 10/31/2 47/6/2 52/5/2
f 58/79/4 55/80/4 56/52/4 57/51/4
f 81/50/6 83/81/6 58/79/6 57/51/6
f 83/81/1 84/82/1 55/80/1 58/79/1
f 84/82/5 82/49/5 56/52/5 55/80/5
f 67/83/2 61/84/2 62/85/2 68/86/2
f 69/87/4 70/88/4 65/89/4 66/90/4
f 62/85/6 61/84/6 66/90/6 65/89/6
f 71/91/1 59/92/1 64/93/1 73/94/1
f 59/92/5 60/95/5 63/96/5 64/93/5
f 68/86/3 62/85/3 65/89/3 70/88/3
f 72/97/3 68/86/3 70/88/3 74/98/3
f 61/84/1 67/83/1 69/87/1 66/90/1
f 73/94/7 74/98/7 70/88/7 69/87/7
f 71/91/2 67/83/2 68/86/2 72/97/2
f 59/92/2 71/91/2 72/97/2 60/95/2
f 64/93/4 63/96/4 74/98/4 73/94/4
f 60/95/3 72/97/3 74/98/3 63/96/3
f 67/83/1 71/91/1 73/94/1 69/87/1
f 20/76/4 42/44/4 80/63/4 75/36/4
f 30/11/4 43/53/4 79/65/4 78/66/4
f 29/42/4 30/11/4 78/66/4 77/64/4
f 43/53/4 19/69/4 76/35/4 79/65/4
f 42/44/4 29/42/4 77/64/4 80/63/4
f 3/68/5 14/75/5 13/73/5 9/74/5 11/78/5 20/76/5 19/69/5 1/70/5
f 51/26/4 25/28/4 82/49/4 84/82/4
f 54/71/4 51/26/4 84/82/4 83/81/4
f 38/43/4 54/71/4 83/81/4 81/50/4
f 25/28/4 38/43/4 81/50/4 82/49/4
f 19/69/4 20/76/4 75/36/4 76/35/4
f 88/99/2 85/100/2 86/101/2 87/102/2
f 92/103/4 91/104/4 90/105/4 89/106/4
f 88/99/5 87/102/5 91/104/5 92/103/5
f 87/102/3 86/101/3 90/105/3 91/104/3
f 85/100/1 88/99/1 92/103/1 89/106/1
f 86/101/6 85/100/6 89/106/6 90/105/6
