# Blender v2.80 (sub 75) OBJ File: 'collapsed.blend'
# www.blender.org
mtllib gararge_door.mtl
o gararge_door_Plane.008
v -1.000000 0.100000 0.050000
v 1.000000 0.100000 0.050000
v -1.000000 3.100000 0.050000
v 1.000000 3.100000 0.050000
v -1.000000 3.100000 -0.050000
v 1.000000 3.100000 -0.050000
vt 0.000000 0.000000
vt 1.000000 0.000000
vt 1.000000 1.000000
vt 0.000000 1.000000
vt 1.000000 1.000000
vt 0.000000 1.000000
vn 0.0000 0.0000 1.0000
vn 0.0000 1.0000 0.0000
g gararge_door_Plane.008_None
usemtl None
s off
f 1/1/1 2/2/1 4/3/1 3/4/1
f 3/4/2 4/3/2 6/5/2 5/6/2
