# Blender v2.80 (sub 75) OBJ File: 'collapsed.blend'
# www.blender.org
mtllib gararge_front.mtl
o gararge_front_Plane.007
v -3.000000 0.000000 -2.100000
v 3.000000 0.000000 -2.100000
v -3.000000 3.000000 -2.100000
v 3.000000 3.000000 -2.100000
v 2.300000 3.000000 -2.100000
v 2.300000 0.000000 -2.100000
v 0.300000 0.000000 1.143334
v -0.300000 0.000000 1.143334
v -0.300000 3.000000 1.143333
v 0.300000 3.000000 1.143333
v -2.300000 0.000000 -2.100000
v -2.300000 3.000000 -2.100000
v -3.000000 3.000000 2.100000
v -3.000000 0.000000 2.100000
v 3.000000 0.000000 2.100000
v 3.000000 3.000000 2.100000
v 2.300000 3.000000 2.100000
v 2.300000 0.000000 2.100000
v -0.300000 0.000000 2.100000
v 0.300000 0.000000 2.100000
v 0.300000 3.000000 2.100000
v -0.300000 3.000000 2.100000
v -2.300000 3.000000 2.100000
v -2.300000 0.000000 2.100000
v -3.200000 3.000000 1.900000
v 3.200000 3.000000 1.900000
v -3.200000 6.000000 1.900000
v 3.200000 6.000000 1.900000
v 3.200000 3.000000 0.900000
v -3.200000 3.000000 0.900000
v 3.200000 6.000000 0.900000
v -3.200000 6.000000 0.900000
v 3.000000 3.000000 -2.100000
v -3.000000 3.000000 -2.100000
v -3.000000 6.000000 -2.100000
v 3.000000 6.000000 -2.100000
v -3.000000 3.000000 0.900000
v 3.000000 3.000000 0.900000
v 3.000000 6.000000 0.900000
v -3.000000 6.000000 0.900000
vt 0.000000 0.000000
vt 0.000000 0.000000
vt 0.000000 0.000000
vt 0.000000 0.000000
vt 0.000000 0.000000
vt 0.000000 0.000000
vt 0.000000 0.000000
vt 0.000000 0.000000
vt 0.000000 0.000000
vt 0.000000 0.000000
vt 0.566667 0.000000
vt 0.566667 1.000000
vt 0.433333 1.000000
vt 0.433333 0.000000
vt 1.000000 0.000000
vt 1.000000 0.000000
vt 1.000000 1.000000
vt 1.000000 1.000000
vt 0.000000 1.000000
vt 0.000000 1.000000
vt 1.000000 1.000000
vt 1.000000 0.000000
vt 0.000000 0.000000
vt 0.000000 0.000000
vt 0.000000 0.000000
vt 0.000000 0.000000
vt 0.433333 1.000000
vt 0.433333 0.000000
vt 0.000000 1.000000
vt 0.000000 0.000000
vt 0.000000 0.000000
vt 0.000000 0.000000
vt 0.000000 0.000000
vt 0.000000 0.000000
vt 0.000000 0.000000
vt 0.000000 0.000000
vt 0.000000 0.000000
vt 0.000000 0.000000
vt 0.000000 0.000000
vt 0.566667 0.000000
vt 0.566667 1.000000
vt 0.000000 0.000000
vt 0.000000 0.000000
vt 0.000000 0.000000
vt 0.000000 0.000000
vt 0.000000 0.000000
vt 0.000000 0.000000
vt 0.000000 0.000000
vt 0.000000 0.000000
vt 0.000000 0.000000
vt 0.000000 0.000000
vt 0.000000 0.000000
vt 0.000000 0.000000
vt 0.566667 0.000000
vt 0.566667 1.000000
vt 0.433333 1.000000
vt 0.433333 0.000000
vt 0.433333 1.000000
vt 0.433333 0.000000
vt 0.000000 0.000000
vt 0.000000 0.000000
vt 0.000000 0.000000
vt 0.000000 0.000000
vt 0.566667 0.000000
vt 0.566667 1.000000
vn 0.0000 1.0000 0.0000
vn -1.0000 -0.0000 0.0000
vn 0.0000 -1.0000 0.0000
vn 0.0000 0.0000 1.0000
vn 1.0000 -0.0000 0.0000
vn -0.0000 0.0000 -1.0000
g gararge_front_Plane.007_None
usemtl None
s off
f 10/1/1 9/2/1 22/3/1 21/4/1
f 3/5/2 1/6/2 14/7/2 13/8/2
f 1/6/3 11/9/3 24/10/3 14/7/3
f 20/11/4 21/12/4 22/13/4 19/14/4
f 18/15/4 15/16/4 16/17/4 17/18/4
f 14/7/4 24/10/4 23/19/4 13/20/4
f 5/21/2 6/22/2 18/15/2 17/18/2
f 2/23/5 4/24/5 16/25/5 15/26/5
f 9/27/2 8/28/2 19/14/2 22/13/2
f 11/9/5 12/29/5 23/19/5 24/10/5
f 8/30/3 7/31/3 20/32/3 19/33/3
f 12/34/1 3/5/1 13/8/1 23/35/1
f 4/24/1 5/36/1 17/37/1 16/25/1
f 6/38/3 2/23/3 15/26/3 18/39/3
f 7/40/5 10/41/5 21/12/5 20/11/5
f 25/42/6 27/43/6 28/44/6 26/45/6
f 30/46/4 29/47/4 31/48/4 32/49/4
f 26/45/2 28/44/2 31/48/2 29/47/2
f 28/44/3 27/43/3 32/49/3 31/48/3
f 27/43/5 25/42/5 30/46/5 32/49/5
f 25/42/1 26/45/1 29/47/1 30/46/1
f 36/50/1 35/51/1 40/52/1 39/53/1
f 38/54/4 39/55/4 40/56/4 37/57/4
f 35/58/2 34/59/2 37/57/2 40/56/2
f 34/60/3 33/61/3 38/62/3 37/63/3
f 33/64/5 36/65/5 39/55/5 38/54/5
f 8/28/6 9/27/6 10/1/6 7/40/6
f 33/64/6 34/59/6 35/51/6 36/65/6
f 4/24/6 2/23/6 6/22/6 5/36/6
f 3/5/6 12/34/6 11/9/6 1/6/6
