# Blender v2.80 (sub 75) OBJ File: 'collapsed.blend'
# www.blender.org
mtllib inset_front.mtl
o inset_front_Plane.013
v -3.000000 0.000000 -2.050000
v 3.000000 0.000000 -2.050000
v -3.000000 3.000000 -2.050000
v 3.000000 3.000000 -2.050000
v 2.800000 3.000000 -2.050000
v 2.800000 0.000000 -2.050000
v -2.800000 0.000000 -2.050000
v -2.800000 3.000000 -2.050000
v -3.000000 3.000000 1.950000
v -3.000000 0.000000 1.950000
v 3.000000 0.000000 1.950000
v 3.000000 3.000000 1.950000
v 2.800000 3.000000 1.950000
v 2.800000 0.000000 1.950000
v -2.800000 3.000000 1.950000
v -2.800000 0.000000 1.950000
v 3.000000 3.000000 -2.050000
v -3.000000 3.000000 -2.050000
v -3.000000 3.500000 -2.050000
v 3.000000 3.500000 -2.050000
v -3.000000 3.000000 2.050000
v 3.000000 3.000000 2.050000
v 3.000000 3.500000 2.050000
v -3.000000 3.500000 2.050000
v -2.000000 0.000000 1.937465
v -2.000000 3.000000 1.937465
v -2.000000 3.000000 1.350000
v -2.000000 0.000000 1.350000
v -2.800000 0.000000 1.937466
v -2.800000 3.000000 1.937466
v -2.800000 3.000000 1.350000
v -2.800000 0.000000 1.350000
v 2.000000 0.000000 1.350000
v 2.000000 3.000000 1.350000
v 2.000000 3.000000 1.937466
v 2.000000 0.000000 1.937466
v 2.800000 0.000000 1.350000
v 2.800000 3.000000 1.350000
v 2.800000 3.000000 1.937466
v 2.800000 0.000000 1.937466
v 3.000000 3.500000 -2.050000
v -3.000000 3.500000 -2.050000
v -3.000000 5.000000 -2.050000
v 3.000000 5.000000 -2.050000
v -3.000000 3.500000 0.650000
v 3.000000 3.500000 0.650000
v 3.000000 5.000000 0.650000
v -3.000000 5.000000 0.650000
vt 0.000000 0.000000
vt 0.000000 0.000000
vt 0.000000 0.000000
vt 0.000000 0.000000
vt 0.000000 0.000000
vt 0.000000 0.000000
vt 1.000000 0.000000
vt 1.000000 0.000000
vt 1.000000 1.000000
vt 1.000000 1.000000
vt 0.000000 1.000000
vt 0.000000 1.000000
vt 1.000000 1.000000
vt 1.000000 0.000000
vt 0.000000 0.000000
vt 0.000000 0.000000
vt 0.000000 0.000000
vt 0.000000 0.000000
vt 0.000000 1.000000
vt 0.000000 0.000000
vt 0.000000 0.000000
vt 0.000000 0.000000
vt 0.000000 0.000000
vt 0.000000 0.000000
vt 0.000000 0.000000
vt 0.000000 0.000000
vt 0.000000 0.000000
vt 0.000000 0.000000
vt 0.000000 0.000000
vt 0.566667 0.000000
vt 0.566667 1.000000
vt 0.433333 1.000000
vt 0.433333 0.000000
vt 0.433333 1.000000
vt 0.433333 0.000000
vt 0.000000 0.000000
vt 0.000000 0.000000
vt 0.000000 0.000000
vt 0.000000 0.000000
vt 0.566667 0.000000
vt 0.566667 1.000000
vt 1.000000 0.000000
vt 1.000000 0.000000
vt 1.000000 1.000000
vt 1.000000 1.000000
vt 1.000000 1.000000
vt 1.000000 0.000000
vt 0.000000 0.000000
vt 0.000000 0.000000
vt 0.000000 0.000000
vt 0.000000 0.000000
vt 0.000000 0.000000
vt 0.000000 0.000000
vt 0.000000 0.000000
vt 0.000000 0.000000
vt 1.000000 0.000000
vt 1.000000 0.000000
vt 1.000000 1.000000
vt 1.000000 1.000000
vt 1.000000 1.000000
vt 1.000000 0.000000
vt 0.000000 0.000000
vt 0.000000 0.000000
vt 0.000000 0.000000
vt 0.000000 0.000000
vt 0.000000 0.000000
vt 0.000000 0.000000
vt 0.000000 0.000000
vt 0.000000 0.000000
vt 0.000000 0.000000
vt 0.000000 0.000000
vt 0.000000 0.000000
vt 0.000000 0.000000
vt 0.566667 0.000000
vt 0.566667 1.000000
vt 0.433333 1.000000
vt 0.433333 0.000000
vt 0.433333 1.000000
vt 0.433333 0.000000
vt 0.000000 0.000000
vt 0.000000 0.000000
vt 0.000000 0.000000
vt 0.000000 0.000000
vt 0.566667 0.000000
vt 0.566667 1.000000
vn -1.0000 -0.0000 0.0000
vn 0.0000 -1.0000 0.0000
vn 0.0000 0.0000 1.0000
vn 1.0000 -0.0000 0.0000
vn 0.0000 1.0000 0.0000
vn -0.0000 -0.0000 -1.0000
g inset_front_Plane.013_None
usemtl None
s off
f 3/1/1 1/2/1 10/3/1 9/4/1
f 1/2/2 7/5/2 16/6/2 10/3/2
f 14/7/3 11/8/3 12/9/3 13/10/3
f 10/3/3 16/6/3 15/11/3 9/12/3
f 5/13/1 6/14/1 14/7/1 13/10/1
f 2/15/4 4/16/4 12/17/4 11/18/4
f 7/5/4 8/19/4 15/11/4 16/6/4
f 8/20/5 3/1/5 9/4/5 15/21/5
f 4/16/5 5/22/5 13/23/5 12/17/5
f 6/24/2 2/15/2 11/18/2 14/25/2
f 20/26/5 19/27/5 24/28/5 23/29/5
f 22/30/3 23/31/3 24/32/3 21/33/3
f 19/34/1 18/35/1 21/33/1 24/32/1
f 18/36/2 17/37/2 22/38/2 21/39/2
f 17/40/4 20/41/4 23/31/4 22/30/4
f 32/42/1 29/43/1 30/44/1 31/45/1
f 27/46/6 28/47/6 32/42/6 31/45/6
f 25/48/3 26/49/3 30/50/3 29/51/3
f 26/49/5 27/52/5 31/53/5 30/50/5
f 28/54/2 25/48/2 29/51/2 32/55/2
f 26/49/4 25/48/4 28/47/4 27/52/4
f 40/56/4 37/57/4 38/58/4 39/59/4
f 35/60/3 36/61/3 40/56/3 39/59/3
f 33/62/6 34/63/6 38/64/6 37/65/6
f 34/63/5 35/66/5 39/67/5 38/64/5
f 36/68/2 33/62/2 37/65/2 40/69/2
f 34/63/1 33/62/1 36/61/1 35/66/1
f 17/40/6 18/35/6 19/27/6 20/41/6
f 4/16/6 2/15/6 6/14/6 5/22/6
f 3/1/6 8/20/6 7/5/6 1/2/6
f 44/70/5 43/71/5 48/72/5 47/73/5
f 46/74/3 47/75/3 48/76/3 45/77/3
f 43/78/1 42/79/1 45/77/1 48/76/1
f 42/80/2 41/81/2 46/82/2 45/83/2
f 41/84/4 44/85/4 47/75/4 46/74/4
f 41/84/6 42/79/6 43/71/6 44/85/6
